<svg id="bowl" xmlns="http://www.w3.org/2000/svg" width="38.004" height="33.101" viewBox="0 0 38.004 33.101">
  <path id="Path_10085" data-name="Path 10085" d="M73.2,248c-2.4,0-4.811,1-7.353,2.107,0,.051-.013.1-.011.153a6.044,6.044,0,0,1-1.885,4.428c-2.138,2.138-5.218,2.523-6.881.86a3.683,3.683,0,0,1-1.028-2.644h0c-2.293,0-4.124-.384-5.023-1.055l-.488-.364-1.125-.6a12.254,12.254,0,0,0,11.539,8.151h7.356a12.256,12.256,0,0,0,12.042-10A22.886,22.886,0,0,0,73.2,248Zm0,0" transform="translate(-45.613 -228.998)" fill="#f0bc5e"/>
  <path id="Path_10086" data-name="Path 10086" d="M36.165,12.259h-7.1l8.253-8.253A2.347,2.347,0,1,0,34,.688L22.426,12.259H1.839a1.839,1.839,0,0,0,0,3.678h.613v1.839a12.886,12.886,0,0,0,7.715,11.786,3.059,3.059,0,0,0-2.2,2.925V33.1H30.036v-.613a3.059,3.059,0,0,0-2.2-2.925,12.886,12.886,0,0,0,7.715-11.786V15.937h.613a1.839,1.839,0,1,0,0-3.678Zm-1.3-10.7A1.121,1.121,0,1,1,36.45,3.14l-9.12,9.12H24.16ZM26.971,30.649A1.842,1.842,0,0,1,28.7,31.875H9.3a1.842,1.842,0,0,1,1.734-1.226Zm7.356-12.872A11.659,11.659,0,0,1,22.68,29.423H15.324A11.659,11.659,0,0,1,3.678,17.776V15.937H18.748l-.7.7a1.738,1.738,0,0,1-1.282.538,6.694,6.694,0,0,0-4.889,2.064,6.923,6.923,0,0,0-2.03,3.976,4.42,4.42,0,0,0,1.17,3.772A4.269,4.269,0,0,0,14.1,28.2a5.621,5.621,0,0,0,.688-.043,6.922,6.922,0,0,0,3.976-2.03,6.7,6.7,0,0,0,2.064-4.889,1.733,1.733,0,0,1,.538-1.282l4.016-4.015h8.941ZM20.482,15.937h3.17L20.5,19.086a2.957,2.957,0,0,0-.9,2.205A5.457,5.457,0,0,1,17.9,25.257a5.7,5.7,0,0,1-3.261,1.681,3.227,3.227,0,0,1-2.753-.82,3.224,3.224,0,0,1-.82-2.753A5.694,5.694,0,0,1,12.748,20.1,5.449,5.449,0,0,1,16.713,18.4a2.981,2.981,0,0,0,2.205-.9Zm15.684-1.226H1.839a.613.613,0,1,1,0-1.226H36.165a.613.613,0,0,1,0,1.226Zm0,0" transform="translate(0 0)"/>
  <path id="Path_10087" data-name="Path 10087" d="M161.356,257.355a4.534,4.534,0,0,0-1.33,2.546,2.034,2.034,0,0,0,.471,1.734,1.864,1.864,0,0,0,1.359.5,4.333,4.333,0,0,0,2.921-1.355,4.536,4.536,0,0,0,1.33-2.546,2.034,2.034,0,0,0-.471-1.734,1.861,1.861,0,0,0-1.358-.5A4.336,4.336,0,0,0,161.356,257.355Zm3.536.722a3.292,3.292,0,0,1-.981,1.831,3.142,3.142,0,0,1-2.054,1,.723.723,0,0,1-.493-.136.934.934,0,0,1-.122-.715,3.292,3.292,0,0,1,.981-1.831,3.142,3.142,0,0,1,2.055-1,.722.722,0,0,1,.492.136A.936.936,0,0,1,164.891,258.077Zm0,0" transform="translate(-147.742 -236.385)"/>
</svg>
