<svg id="camera" xmlns="http://www.w3.org/2000/svg" width="24.139" height="20.115" viewBox="0 0 24.139 20.115">
  <circle id="Ellipse_42" data-name="Ellipse 42" cx="3.224" cy="3.224" r="3.224" transform="translate(8.845 7.839)" fill="#d1d4d4"/>
  <path id="Path_1554" data-name="Path 1554" d="M22.127,45.684h-3.19a1.5,1.5,0,0,1-1.067-.442L16.031,43.4a2.5,2.5,0,0,0-1.778-.737H9.885a2.5,2.5,0,0,0-1.778.737L6.268,45.242a1.5,1.5,0,0,1-1.067.442H2.012A2.013,2.013,0,0,0,0,47.7V60.771a2.014,2.014,0,0,0,2.012,2.012H22.127a2.014,2.014,0,0,0,2.012-2.012V47.7A2.014,2.014,0,0,0,22.127,45.684ZM12.069,59.765A6.035,6.035,0,1,1,18.1,53.73,6.041,6.041,0,0,1,12.069,59.765Zm8.948-8.15a3.242,3.242,0,0,1-1.908-1.908A3.242,3.242,0,0,1,21.018,47.8a3.242,3.242,0,0,1,1.908,1.908A3.242,3.242,0,0,1,21.018,51.615Z" transform="translate(0 -42.667)" fill="#d1d4d4"/>
</svg>
