<svg id="chef" xmlns="http://www.w3.org/2000/svg" width="20.999" height="20.999" viewBox="0 0 20.999 20.999">
  <g id="Group_2537" data-name="Group 2537" transform="translate(0 0)">
    <g id="Group_2536" data-name="Group 2536">
      <path id="Path_1552" data-name="Path 1552" d="M78.834,384H64.52a.477.477,0,0,0-.477.477l0,1.392a1.948,1.948,0,0,0,1.947,1.95H77.364a1.949,1.949,0,0,0,1.947-1.947v-1.394A.477.477,0,0,0,78.834,384Z" transform="translate(-61.176 -366.819)" fill="#d1d4d4"/>
      <path id="Path_1553" data-name="Path 1553" d="M15.749,1.909a4.947,4.947,0,0,0-.91.089A5.722,5.722,0,0,0,4.772,5.727a.477.477,0,0,1-.955,0,6.592,6.592,0,0,1,.707-2.971.477.477,0,0,0-.542-.677,5.237,5.237,0,0,0-1.107,9.758L2.87,15.749a.477.477,0,0,0,.477.478H17.658a.477.477,0,0,0,.477-.477V11.83a5.247,5.247,0,0,0-2.386-9.921ZM6.984,13.255a.478.478,0,0,1-.672-.066c-.158-.192-1.54-1.913-1.54-3.166a.477.477,0,1,1,.955,0,5.785,5.785,0,0,0,1.324,2.561A.478.478,0,0,1,6.984,13.255Zm3.992-.369a.477.477,0,1,1-.954,0V10.022a.477.477,0,1,1,.955,0v2.863Zm3.71.3a.477.477,0,0,1-.738-.605,5.805,5.805,0,0,0,1.324-2.561.477.477,0,1,1,.955,0C16.226,11.275,14.844,13,14.686,13.189Z" transform="translate(0 0)" fill="#d1d4d4"/>
    </g>
  </g>
</svg>
