<svg xmlns="http://www.w3.org/2000/svg" width="18.514" height="20" viewBox="0 0 18.514 20">
  <g id="chef" transform="translate(-19.021)">
    <rect id="Rectangle_5772" data-name="Rectangle 5772" width="10.943" height="2.712" transform="translate(22.799 17.272)" fill="#ff883e"/>
    <path id="Path_10117" data-name="Path 10117" d="M22.8,16.008V17.96H33.742V12.153A2.632,2.632,0,0,1,35.3,9.764a3.779,3.779,0,0,0-3.116-6.886A3.78,3.78,0,0,0,28.518,0a3.871,3.871,0,0,0-2.09.63A3.011,3.011,0,0,0,24.8,3.116a3.779,3.779,0,1,0-3.56,6.648A2.631,2.631,0,0,1,22.8,12.153V16.04" transform="translate(0)" fill="#ffcd71"/>
    <g id="Group_6653" data-name="Group 6653" transform="translate(27.255 0.017)" opacity="0.34">
      <path id="Path_10118" data-name="Path 10118" d="M232.18,3.3a3.779,3.779,0,0,1,2.514-.209A3.779,3.779,0,0,0,231.082.423,3.73,3.73,0,0,0,229.8.651,3.786,3.786,0,0,1,232.18,3.3Z" transform="translate(-229.804 -0.423)" fill="#ff883e"/>
      <path id="Path_10119" data-name="Path 10119" d="M333,65.56a3.774,3.774,0,0,0-1.336.226,3.778,3.778,0,0,1,.279,6.994,2.632,2.632,0,0,0-1.562,2.389v5.806h0V83h2.573V80.975h0V75.169a2.632,2.632,0,0,1,1.562-2.389A3.779,3.779,0,0,0,333,65.56Z" transform="translate(-326.453 -63.015)" fill="#ff883e"/>
    </g>
    <g id="Group_6654" data-name="Group 6654" transform="translate(20.215 3.631)">
      <path id="Path_10120" data-name="Path 10120" d="M51.283,98.127a.305.305,0,0,1-.127-.028,2.689,2.689,0,0,1,1.091-5.136h0a.306.306,0,0,1,0,.612,2.076,2.076,0,0,0-.842,3.966.306.306,0,0,1-.127.585Z" transform="translate(-49.58 -92.963)" fill="#ff883e"/>
      <path id="Path_10121" data-name="Path 10121" d="M177.127,347.962v-3.948a.655.655,0,0,1,.653-.653h.007a.655.655,0,0,1,.653.653v3.948Z" transform="translate(-172.145 -333.58)" fill="#ff883e"/>
      <path id="Path_10122" data-name="Path 10122" d="M247.078,347.962v-3.948a.655.655,0,0,1,.653-.653h.007a.655.655,0,0,1,.653.653v3.948Z" transform="translate(-239.363 -333.58)" fill="#ff883e"/>
      <path id="Path_10123" data-name="Path 10123" d="M317.027,347.962v-3.948a.655.655,0,0,1,.653-.653h.007a.655.655,0,0,1,.653.653v3.948Z" transform="translate(-306.58 -333.58)" fill="#ff883e"/>
    </g>
  </g>
</svg>
