<svg id="chef_1_" data-name="chef (1)" xmlns="http://www.w3.org/2000/svg" width="13.555" height="13.555" viewBox="0 0 13.555 13.555">
  <g id="Group_2560" data-name="Group 2560">
    <g id="Group_2559" data-name="Group 2559">
      <path id="Path_1701" data-name="Path 1701" d="M73.59,384H64.35a.308.308,0,0,0-.308.308v.9a1.257,1.257,0,0,0,1.257,1.258h7.343a1.258,1.258,0,0,0,1.257-1.257v-.9A.308.308,0,0,0,73.59,384Z" transform="translate(-62.191 -372.909)" fill="#fff"/>
      <path id="Path_1702" data-name="Path 1702" d="M10.167,1.232a3.194,3.194,0,0,0-.588.057A3.694,3.694,0,0,0,3.081,3.7a.308.308,0,1,1-.616,0,4.255,4.255,0,0,1,.456-1.918.308.308,0,0,0-.35-.437,3.38,3.38,0,0,0-.715,6.3l0,2.525a.308.308,0,0,0,.308.308H11.4a.308.308,0,0,0,.308-.308V7.637a3.387,3.387,0,0,0-1.54-6.4ZM4.509,8.556a.309.309,0,0,1-.434-.043A4.327,4.327,0,0,1,3.081,6.47a.308.308,0,1,1,.616,0,3.734,3.734,0,0,0,.854,1.653A.309.309,0,0,1,4.509,8.556Zm2.577-.238a.308.308,0,1,1-.616,0V6.47a.308.308,0,1,1,.616,0V8.318Zm2.395.2A.308.308,0,0,1,9,8.123,3.748,3.748,0,0,0,9.859,6.47a.308.308,0,1,1,.616,0A4.327,4.327,0,0,1,9.481,8.514Z" fill="#fff"/>
    </g>
  </g>
</svg>
