<svg xmlns="http://www.w3.org/2000/svg" width="12.225" height="10.876" viewBox="0 0 12.225 10.876">
  <path id="heart_1_" data-name="heart (1)" d="M11.256,1.064A3.287,3.287,0,0,0,8.811,0,3.075,3.075,0,0,0,6.89.663a3.93,3.93,0,0,0-.777.811A3.928,3.928,0,0,0,5.336.663,3.075,3.075,0,0,0,3.416,0,3.288,3.288,0,0,0,.97,1.064,3.821,3.821,0,0,0,0,3.674,4.55,4.55,0,0,0,1.213,6.652,25.855,25.855,0,0,0,4.248,9.5c.421.358.9.765,1.392,1.2a.718.718,0,0,0,.945,0c.495-.433.972-.839,1.393-1.2a25.841,25.841,0,0,0,3.035-2.849,4.55,4.55,0,0,0,1.212-2.978,3.821,3.821,0,0,0-.97-2.61Zm0,0" transform="translate(-0.001)" fill="#ff5b6e"/>
</svg>
