<svg xmlns="http://www.w3.org/2000/svg" width="22.897" height="22.053" viewBox="0 0 22.897 22.053">
  <g id="home" transform="translate(-475.821 -0.947)">
    <path id="Path_2" data-name="Path 2" d="M489.1,10.537v0a1.98,1.98,0,0,1,0,2.87,2.136,2.136,0,0,1-1.491.595h-.345v6.62A2.426,2.426,0,0,1,484.8,23h-3.655a.659.659,0,0,1-.671-.646v-5.19a1.106,1.106,0,0,0-1.125-1.084h-2.156a1.107,1.107,0,0,0-1.126,1.084v5.19a.658.658,0,0,1-.67.646h-3.655a2.425,2.425,0,0,1-2.467-2.376V14H468.9l-.065,0a2.132,2.132,0,0,1-1.4-.592,1.979,1.979,0,0,1,0-2.867l.009-.009,9.336-8.991a2.166,2.166,0,0,1,2.982,0Z" transform="translate(9)" fill="#84ab5c" fill-rule="evenodd"/>
  </g>
</svg>
