<svg xmlns="http://www.w3.org/2000/svg" width="11.764" height="15.685" viewBox="0 0 11.764 15.685">
  <path id="Path_1540" data-name="Path 1540" d="M75.73,9.183a9.245,9.245,0,0,0-2.23-5.1A6.117,6.117,0,0,1,71.842.327a.327.327,0,0,0-.177-.291.324.324,0,0,0-.34.025,8.31,8.31,0,0,0-3.068,4.433,14.472,14.472,0,0,0-.336,3.314c-1.333-.285-1.634-2.278-1.638-2.3a.327.327,0,0,0-.466-.248c-.07.034-1.715.87-1.811,4.208C64,9.58,64,9.692,64,9.8a5.888,5.888,0,0,0,5.882,5.881H69.9A5.888,5.888,0,0,0,75.764,9.8C75.764,9.64,75.73,9.183,75.73,9.183Zm-5.848,5.848a2.03,2.03,0,0,1-1.961-2.088c0-.039,0-.079,0-.127a2.649,2.649,0,0,1,.206-1.038,1.193,1.193,0,0,0,1.079.781.327.327,0,0,0,.327-.327,6.536,6.536,0,0,1,.125-1.486,3.16,3.16,0,0,1,.662-1.253A4.21,4.21,0,0,0,71,10.729a3.723,3.723,0,0,1,.838,2.04c0,.056.008.113.008.173A2.03,2.03,0,0,1,69.882,15.031Z" transform="translate(-64 0)" fill="#7da752"/>
</svg>
