<svg id="language" xmlns="http://www.w3.org/2000/svg" width="20.993" height="20.993" viewBox="0 0 20.993 20.993">
  <g id="Group_6736" data-name="Group 6736" transform="translate(4.932 5.617)">
    <g id="Group_6735" data-name="Group 6735">
      <path id="Path_10526" data-name="Path 10526" d="M121.048,137h-.263l-.492,2.46h1.247Z" transform="translate(-120.293 -137)" fill="#7286a5"/>
    </g>
  </g>
  <g id="Group_6738" data-name="Group 6738" transform="translate(15.637 10.538)">
    <g id="Group_6737" data-name="Group 6737">
      <path id="Path_10527" data-name="Path 10527" d="M381.374,257a6.428,6.428,0,0,0,1.01,1.782A6.493,6.493,0,0,0,383.434,257Z" transform="translate(-381.374 -257)" fill="#7286a5"/>
    </g>
  </g>
  <g id="Group_6740" data-name="Group 6740" transform="translate(9.95 3.731)">
    <g id="Group_6739" data-name="Group 6739">
      <path id="Path_10528" data-name="Path 10528" d="M251.861,91h-7.638l1.593,12.78a1.909,1.909,0,0,1-.456,1.4l-2.7,3.082h9.2a1.847,1.847,0,0,0,1.845-1.845V92.886A1.883,1.883,0,0,0,251.861,91Zm0,6.806H251.7a7.8,7.8,0,0,1-1.482,2.694c.452.413.935.752,1.415,1.131a.615.615,0,1,1-.769.96c-.522-.412-1.012-.757-1.5-1.206-.49.45-.939.794-1.461,1.206a.615.615,0,1,1-.769-.96c.48-.38.922-.718,1.374-1.131a7.763,7.763,0,0,1-1.441-2.694H246.9a.615.615,0,0,1,0-1.23h1.845v-.615a.615.615,0,0,1,1.23,0v.615h1.886a.615.615,0,1,1,0,1.23Z" transform="translate(-242.663 -91)" fill="#7286a5"/>
    </g>
  </g>
  <g id="Group_6742" data-name="Group 6742">
    <g id="Group_6741" data-name="Group 6741">
      <path id="Path_10529" data-name="Path 10529" d="M10.011,1.616A1.848,1.848,0,0,0,8.181,0H1.845A1.847,1.847,0,0,0,0,1.845V15.458A1.847,1.847,0,0,0,1.845,17.3h9.7c.179-.205.33-.334.336-.6C11.882,16.635,10.02,1.683,10.011,1.616ZM7.542,11.756a.615.615,0,0,1-.724-.482L6.425,9.308H4.686l-.393,1.966a.615.615,0,1,1-1.206-.241l1.23-6.15a.615.615,0,0,1,.6-.494H6.191a.615.615,0,0,1,.6.494l1.23,6.15A.615.615,0,0,1,7.542,11.756Z" fill="#7286a5"/>
    </g>
  </g>
  <g id="Group_6744" data-name="Group 6744" transform="translate(7.186 18.533)">
    <g id="Group_6743" data-name="Group 6743">
      <path id="Path_10530" data-name="Path 10530" d="M175.261,452l.106.844a1.86,1.86,0,0,0,1.064,1.429L178.495,452Z" transform="translate(-175.261 -452)" fill="#7286a5"/>
    </g>
  </g>
</svg>
