<svg xmlns="http://www.w3.org/2000/svg" width="120" height="57.515" viewBox="0 0 120 57.515">
  <g id="logo" transform="translate(-123 -14.366)">
    <g id="Group_2543" data-name="Group 2543" transform="translate(2)">
      <text id="Food_Recipe" data-name="Food       Recipe" transform="translate(121 58)" fill="#90af17" font-size="28" font-family="AmaticSC-Bold, Amatic SC" font-weight="700"><tspan x="0" y="0" xml:space="preserve">Food       Recipe</tspan></text>
    </g>
    <path id="Path_3462" data-name="Path 3462" d="M286.913,346.043c.688-.37,1.1-.752.744-1.574a1.344,1.344,0,0,1,.534-1.846,3.066,3.066,0,0,0,1.157-3.128c-1-8.985-1.973-17.973-2.859-26.969a3.749,3.749,0,0,0-2.146-3.2,6.708,6.708,0,0,0-3.258-.87c-1.128.016-1.2-.371-.706-1.277a8.983,8.983,0,0,0-1.056-10.4c-1.635-1.988-3.485-1.774-4.5.605a9.039,9.039,0,0,0,.807,8.953c.347.532.731,1.039,1.071,1.575.314.494.219.766-.413.94a28,28,0,0,0-3.208,1.1c-.6.248-.846.108-.911-.494a11.3,11.3,0,0,1-.114-1.218c0-3.961-2.542-6.682-4.673-9.6-.358-.491-.813-.338-1.2-.051-.493.367.013.628.181.866,1.125,1.6,2.283,3.169,3.416,4.759.232.325.583.792.207,1.086-.489.383-.8-.179-1.051-.517-1.109-1.5-2.175-3.024-3.3-4.507-.243-.321-.35-1.123-1.052-.653-.738.495,0,.853.236,1.182,1.163,1.624,2.373,3.215,3.547,4.831.229.316.613.769.234,1.08-.47.386-.812-.126-1.076-.477-1.227-1.635-2.428-3.289-3.666-4.916-.2-.263-.294-.883-.887-.484-.61.411-.186.758.072,1.115,1.09,1.51,2.195,3.009,3.258,4.537.232.333.767.8.279,1.162-.55.408-.874-.238-1.151-.611-1.083-1.458-2.126-2.946-3.21-4.4-.166-.222-.231-.816-.757-.413-.365.279-.293.639-.079.966q.9,1.367,1.82,2.715c1.6,2.324,3.15,4.7,6.11,5.545.867.248.484.688.081,1.142a6.286,6.286,0,0,0-1.015,7.738c3.558,7,7.1,14,10.863,20.891a2.27,2.27,0,0,1,.539,1.377" transform="translate(-1.345 -341.619) rotate(16)" fill="#fdfdfd"/>
    <path id="Path_3463" data-name="Path 3463" d="M283.209,347.183c-.728-.469-3.745-5.559-3.964-5.959-3.765-6.889-7.3-13.894-10.863-20.891A6.286,6.286,0,0,1,269.4,312.6c.4-.454.786-.894-.081-1.142-2.96-.848-4.508-3.221-6.11-5.545q-.928-1.346-1.82-2.715c-.214-.327-.286-.687.079-.966.526-.4.591.191.757.413,1.084,1.457,2.127,2.945,3.21,4.4.277.373.6,1.019,1.151.611.488-.362-.047-.829-.279-1.162-1.064-1.528-2.168-3.027-3.258-4.537-.258-.357-.682-.7-.072-1.115.593-.4.687.22.887.484,1.237,1.627,2.439,3.281,3.666,4.916.264.351.605.863,1.076.477.379-.311,0-.764-.234-1.08-1.174-1.616-2.384-3.207-3.547-4.831-.236-.329-.974-.687-.236-1.182.7-.47.808.332,1.052.653,1.125,1.483,2.19,3.012,3.3,4.507.251.338.562.9,1.051.517.376-.295.024-.762-.207-1.086-1.133-1.59-2.29-3.163-3.416-4.759-.168-.238-.674-.5-.181-.866.385-.287.84-.44,1.2.051,2.13,2.921,4.674,5.641,4.673,9.6a11.3,11.3,0,0,0,.114,1.218c.065.6.307.742.911.494a28,28,0,0,1,3.208-1.1c.632-.174.728-.446.413-.94-.34-.536-.724-1.044-1.071-1.575a9.039,9.039,0,0,1-.807-8.953c1.015-2.379,2.866-2.593,4.5-.605a8.983,8.983,0,0,1,1.056,10.4c-.489.907-.421,1.293.706,1.277a6.708,6.708,0,0,1,3.258.87,3.749,3.749,0,0,1,2.146,3.2c.886,9,1.861,17.984,2.859,26.969a3.066,3.066,0,0,1-1.157,3.128,1.344,1.344,0,0,0-.534,1.846c.358.822-1.037,1.57-1.726,1.939Zm-4.146-26.9a6.435,6.435,0,0,0,1.4-.473c.993-.61,1.4-.284,1.536.771.037.282-.049.952.491.721.931-.4,2.131-.819,2.252-1.925a20.679,20.679,0,0,0-.334-4,25.5,25.5,0,0,1-5.984,3.366c-.566.124-1.139.223-1.7.382-.4.113-1.153-.065-.878.765.19.57.37,1.219,1.293.939A10.461,10.461,0,0,0,279.063,320.288Zm1.9,15.463a3.8,3.8,0,0,0-.8.051c-.342.093-1-.2-.959.349.042.5.251,1.2.986,1.27a5.687,5.687,0,0,0,1.066-.087c.73.023,1.224.212.755,1.077-1.541.244-1.549.248-.8,1.638q.9,1.663,1.83,3.306c.261.458.48,1.018,1.2.852.756.244,1-.015.812-.781q-2.409-10.075-4.787-20.158c-.155-.661-.413-.8-1.009-.593a14.37,14.37,0,0,1-3.868.625l-2.932-.275c1.449,3.5,1.382,3.547,3.892,3.395a5.669,5.669,0,0,0,2.247-.18c.408-.082.861-.1.948.435.072.444-.28.6-.667.663-.482.081-.962.174-1.443.262H274.8c.32,1.925,1.639,1.685,2.9,1.57.269,0,.54-.016.806.013.555.06,1.424-.706,1.6.232.2,1.015-.9.68-1.458.89a.834.834,0,0,1-.132.027c-.492.009-.986.046-1.476.02-.926-.049-.808.349-.49.961.551,1.06,1.448.571,2.243.568.481-.034.962-.08,1.444-.1a.572.572,0,0,1,.612.406.5.5,0,0,1-.353.624,7.876,7.876,0,0,1-.887.25,2.2,2.2,0,0,0-.669.015c-.4.138-1.194-.3-1.158.426a1.134,1.134,0,0,0,1.314,1.2l.794-.11c.27.006.539.016.809.017.309,0,.663-.082.784.328C281.621,335.4,281.3,335.587,280.962,335.751ZM272.216,317.6a4.914,4.914,0,0,1,.768-.1c1.388.059,1.3-.517.632-1.4-.495-.649-.953-1.326-1.425-1.992-.275-.388-.511-.545-.964-.133-1.057.961-1.754,2.854-1.36,3.928a4.517,4.517,0,0,0,3.749,2.713Zm7.375-4.7c.108.732-.276,1.97.5,2.344.653.316,1.464-.666,2.188-1.106a2.331,2.331,0,0,0,.323-.245c.594-.521,1.579-.931,1.373-1.827-.2-.851-1.218-.962-1.992-1.157C279.639,310.313,279.515,310.419,279.591,312.894Zm-1.9,1.782.041,0c-.1-.991-.2-1.983-.31-2.973-.028-.249.037-.676-.326-.621a9.021,9.021,0,0,0-3.2,1.067c-.336.194-.157.471-.013.692.766,1.177,1.548,2.344,2.314,3.521.287.44.681.37,1.086.263.45-.119.489-.473.463-.859C277.729,315.4,277.714,315.038,277.694,314.676Zm8.7,19.228c-.982.233-1.163.7-.892,1.6.5,1.659.831,3.366,1.233,5.054l.369-.081Zm-3.433-9.437c2.274-1.164,2.4-1.383,1.936-3.169C282.412,322.733,282.412,322.733,282.957,324.467Zm2.262-.009a16.553,16.553,0,0,1-1.428.907c-1.034.518-.442,1.333-.176,1.816.33.6.727-.136,1.053-.314C285.642,326.338,285.7,325.511,285.219,324.458Zm.385,3.3c-1.294.454-2.137,1.116-1.23,2.6C286,329.616,286.087,329.434,285.6,327.76Zm.427,3.141c-.736.346-1.568.569-1.229,1.682.085.279.106.681.594.444C286.34,332.568,286.256,331.788,286.03,330.9Z" transform="translate(-1.345 -341.619) rotate(16)" fill="#90af17"/>
    <path id="Path_3464" data-name="Path 3464" d="M300.165,370.782a14.371,14.371,0,0,0,3.868-.625c.6-.206.854-.067,1.009.593q2.361,10.086,4.787,20.158c.183.766-.056,1.025-.812.781a3.429,3.429,0,0,0-.429-1.412c-.492-1.507-1.531-2.787-1.8-4.384.47-.864-.024-1.053-.755-1.077-.105-.526-.438-1.01-.29-1.582.34-.164.659-.354.524-.811-.122-.41-.476-.327-.784-.328-.27,0-.539-.011-.809-.017l-.279-1.531a7.883,7.883,0,0,0,.887-.25.5.5,0,0,0,.353-.624.572.572,0,0,0-.612-.406c-.482.017-.963.063-1.444.1l-.276-1.549a.831.831,0,0,0,.132-.027c.558-.21,1.654.126,1.458-.89-.181-.938-1.05-.172-1.6-.232-.266-.029-.537-.01-.806-.013-.1-.522-.437-1-.272-1.57.481-.088.96-.182,1.443-.262.386-.065.738-.219.667-.663-.087-.537-.54-.517-.948-.435a5.67,5.67,0,0,1-2.247.18C301.081,372.777,300.287,371.883,300.165,370.782Z" transform="translate(-12.079 -394.094) rotate(16)" fill="#f7f7f7"/>
    <path id="Path_3465" data-name="Path 3465" d="M308.537,353.625a25.5,25.5,0,0,0,5.984-3.366,20.679,20.679,0,0,1,.334,4c-.121,1.106-1.32,1.527-2.252,1.925-.54.231-.454-.44-.491-.721-.14-1.055-.543-1.381-1.536-.771a6.435,6.435,0,0,1-1.4.473Z" transform="translate(-20.673 -383.447) rotate(16)" fill="#f7f7f7"/>
    <path id="Union_3" data-name="Union 3" d="M-3196.146,302.931q-.936-1.64-1.831-3.306c-.747-1.39-.74-1.393.8-1.637.267,1.6,1.306,2.876,1.8,4.384a3.428,3.428,0,0,1,.429,1.412,1.081,1.081,0,0,1-.243.03C-3195.72,303.814-3195.917,303.334-3196.146,302.931Zm2.461-7.845c-.27-.906-.089-1.371.893-1.6.238,2.207.473,4.391.708,6.576l-.368.081C-3192.854,298.452-3193.188,296.745-3193.684,295.086ZM-3199,297c-.735-.075-.944-.77-.987-1.27-.031-.374.27-.355.573-.337a1.309,1.309,0,0,0,.385-.012,2.1,2.1,0,0,1,.555-.048c.083,0,.167,0,.248,0-.148.572.186,1.057.29,1.582-.3.027-.6.095-.9.095A1.653,1.653,0,0,1-3199,297Zm-2.4-3.917c-.023-.488.321-.452.674-.416a1.233,1.233,0,0,0,.484-.01,1.159,1.159,0,0,1,.455-.024c.072,0,.144.01.214.01l.279,1.532c-.264.036-.528.072-.793.11a1.5,1.5,0,0,1-.211.016A1.146,1.146,0,0,1-3201.4,293.081Zm-1.231-2.192c-.318-.612-.436-1.01.491-.96.49.026.984-.012,1.476-.02l.276,1.548c-.382,0-.788.116-1.167.116A1.108,1.108,0,0,1-3202.628,290.89Zm-1.75-3.712h2.624c-.166.568.176,1.048.272,1.57-.358.033-.722.076-1.065.076C-3203.409,288.823-3204.149,288.553-3204.377,287.177Zm-2.354-4.576,2.932.275c.121,1.1.916,1.994.959,3.119-.409.025-.75.044-1.04.044C-3205.368,286.041-3205.519,285.528-3206.732,282.6Zm3.4-3.132c-.275-.831.479-.652.877-.765.557-.158,1.13-.257,1.7-.382l.635,1.543a10.516,10.516,0,0,1-1.915.543,1.39,1.39,0,0,1-.4.068C-3203.017,280.476-3203.168,279.945-3203.327,279.47Zm-5.989-2c-.393-1.074.3-2.967,1.361-3.928.453-.412.688-.255.964.133.472.666.931,1.343,1.425,1.992.672.881.757,1.456-.632,1.4a5,5,0,0,0-.768.1l1.4,3.014A4.518,4.518,0,0,1-3209.315,277.474Zm6.338-1.537c-.767-1.177-1.548-2.344-2.314-3.521-.144-.221-.323-.5.012-.692a9.028,9.028,0,0,1,3.2-1.067c.363-.055.3.372.325.621.11.99.208,1.982.311,2.973l-.041,0c.019.362.034.725.059,1.086.025.386-.014.74-.464.859a1.927,1.927,0,0,1-.478.08A.679.679,0,0,1-3202.978,275.936Zm3.883-1.12c-.771-.374-.388-1.612-.5-2.344-.075-2.475.048-2.581,2.388-1.991.774.2,1.8.307,1.992,1.157.207.9-.778,1.306-1.372,1.827a2.432,2.432,0,0,1-.323.245c-.627.38-1.318,1.167-1.916,1.167A.614.614,0,0,1-3199.095,274.816Z" transform="translate(3331.917 656.23) rotate(16)" fill="#90af17" opacity="0.28"/>
    <path id="Path_3473" data-name="Path 3473" d="M320.474,369.7c-.544-1.734-.544-1.734,1.936-3.169C322.877,368.317,322.747,368.535,320.474,369.7Z" transform="translate(-24.941 -395.44) rotate(16)" fill="#f2f2f2"/>
    <path id="Path_3474" data-name="Path 3474" d="M323.678,375.214c.48,1.053.423,1.88-.55,2.409-.327.178-.723.914-1.053.314-.266-.484-.858-1.3.176-1.816A16.558,16.558,0,0,0,323.678,375.214Z" transform="translate(-24.324 -401.01) rotate(16)" fill="#ececec"/>
    <path id="Path_3476" data-name="Path 3476" d="M325.444,384.29c.484,1.674.4,1.856-1.23,2.6C323.307,385.406,324.15,384.744,325.444,384.29Z" transform="translate(-24.06 -406.941) rotate(16)" fill="#ececec"/>
    <path id="Path_3480" data-name="Path 3480" d="M327.145,392.923c.226.887.31,1.667-.635,2.126-.488.237-.51-.165-.594-.444C325.577,393.492,326.409,393.269,327.145,392.923Z" transform="translate(-23.771 -412.571) rotate(16)" fill="#ececec"/>
  </g>
</svg>
