<svg xmlns="http://www.w3.org/2000/svg" width="18" height="12.656" viewBox="0 0 18 12.656">
  <g id="pot" transform="translate(0 -76)">
    <g id="Group_2554" data-name="Group 2554" transform="translate(2.531 76)">
      <g id="Group_2553" data-name="Group 2553">
        <path id="Path_1699" data-name="Path 1699" d="M83.464,77.266H78.891v-.422h.359a.422.422,0,0,0,0-.844h-1.4a.422.422,0,0,0,0,.844h.2v.422H73.633A1.626,1.626,0,0,0,72,78.814v.42H84.938v-.42A1.489,1.489,0,0,0,83.464,77.266Z" transform="translate(-72 -76)" fill="#fff"/>
      </g>
    </g>
    <g id="Group_2556" data-name="Group 2556" transform="translate(0 79.797)">
      <g id="Group_2555" data-name="Group 2555">
        <path id="Path_1700" data-name="Path 1700" d="M17.647,184.422H15.469V184H2.531v.422H.513c-.233,0-.513.193-.513.426v.27a.516.516,0,0,0,.513.429H2.06c.307,0,.471.242.471.549v5.218a1.623,1.623,0,0,0,1.633,1.545H14a1.486,1.486,0,0,0,1.473-1.545V186.1a.619.619,0,0,1,.631-.549h1.547c.233,0,.353-.2.353-.429v-.27C18,184.615,17.879,184.422,17.647,184.422Z" transform="translate(0 -184)" fill="#fff"/>
      </g>
    </g>
  </g>
</svg>
