<svg xmlns="http://www.w3.org/2000/svg" width="22.8" height="22.8" viewBox="0 0 22.8 22.8">
  <path id="search" d="M1211.389-825.346l-4.6-4.6a9.645,9.645,0,0,1-6.186,2.237,9.7,9.7,0,0,1-9.688-9.688,9.7,9.7,0,0,1,9.688-9.688,9.7,9.7,0,0,1,9.688,9.688,9.646,9.646,0,0,1-2.238,6.187l4.6,4.6a.892.892,0,0,1,0,1.264.89.89,0,0,1-.632.262A.891.891,0,0,1,1211.389-825.346ZM1192.7-837.4a7.909,7.909,0,0,0,7.9,7.9,7.909,7.909,0,0,0,7.9-7.9,7.908,7.908,0,0,0-7.9-7.9A7.909,7.909,0,0,0,1192.7-837.4Z" transform="translate(-1190.516 847.484)" fill="#202e2e" stroke="#202e2e" stroke-width="0.8"/>
</svg>
