<svg xmlns="http://www.w3.org/2000/svg" width="16.586" height="20.88" viewBox="0 0 16.586 20.88">
  <g id="user_1_" data-name="user (1)" transform="translate(0 1)">
    <path id="Path_4344" data-name="Path 4344" d="M91.82,9.576a4.633,4.633,0,0,0,3.386-1.4,4.633,4.633,0,0,0,1.4-3.385,4.634,4.634,0,0,0-1.4-3.385,4.787,4.787,0,0,0-6.771,0,4.633,4.633,0,0,0-1.4,3.385,4.633,4.633,0,0,0,1.4,3.386A4.634,4.634,0,0,0,91.82,9.576Zm0,0" transform="translate(-83.653 -1)" fill="#3b2100"/>
    <path id="Path_4345" data-name="Path 4345" d="M16.546,253a11.827,11.827,0,0,0-.161-1.256,9.9,9.9,0,0,0-.309-1.263,6.239,6.239,0,0,0-.519-1.178,4.446,4.446,0,0,0-.783-1.02,3.452,3.452,0,0,0-1.125-.707,3.886,3.886,0,0,0-1.436-.26,1.457,1.457,0,0,0-.778.33c-.233.152-.506.328-.811.523a4.645,4.645,0,0,1-1.049.462,4.073,4.073,0,0,1-2.566,0,4.634,4.634,0,0,1-1.048-.462c-.3-.193-.575-.369-.811-.523a1.455,1.455,0,0,0-.778-.33,3.882,3.882,0,0,0-1.436.26,3.449,3.449,0,0,0-1.125.707,4.445,4.445,0,0,0-.783,1.02,6.25,6.25,0,0,0-.519,1.178A9.922,9.922,0,0,0,.2,251.744,11.785,11.785,0,0,0,.04,253c-.026.38-.04.775-.04,1.174a3.3,3.3,0,0,0,.98,2.5,3.529,3.529,0,0,0,2.526.922h9.572a3.529,3.529,0,0,0,2.526-.922,3.3,3.3,0,0,0,.981-2.5c0-.4-.014-.8-.04-1.174Zm0,0" transform="translate(0 -237.713)" fill="#3b2100"/>
  </g>
</svg>
